<svg width="1628" height="1000" viewBox="0 0 1628 1000" fill="none" xmlns="http://www.w3.org/2000/svg">
<rect x="1130" y="600" width="200" height="400" fill="#EA7000"/>
<path d="M1000 500C1000 612.31 962.189 721.349 892.658 809.547C823.128 897.746 725.929 959.967 616.722 986.185C507.516 1012.4 392.663 1001.09 290.67 954.071C188.677 907.052 105.484 827.063 54.4964 726.995C3.50912 626.926 -12.3032 512.606 9.60752 402.454C31.5182 292.303 89.8758 192.735 175.277 119.796C260.678 46.8573 368.148 4.79443 480.371 0.385436C592.594 -4.02355 703.034 29.4782 793.894 95.4923L676.637 256.882C622.028 217.206 555.651 197.071 488.203 199.721C420.754 202.371 356.162 227.651 304.834 271.489C253.506 315.327 218.432 375.169 205.263 441.373C192.095 507.576 201.598 576.285 232.243 636.429C262.887 696.572 312.888 744.647 374.188 772.907C435.488 801.167 504.517 807.966 570.153 792.208C635.788 776.45 694.207 739.054 735.996 686.045C777.785 633.035 800.511 567.5 800.511 500H1000Z" fill="#EA7000"/>
<rect width="1128" height="200" transform="matrix(1 0 0 -1 500 600)" fill="#EA7000"/>
</svg>
